<svg width="83" height="83" viewBox="0 0 83 83" fill="none" xmlns="http://www.w3.org/2000/svg">
<path d="M0.5 40.579C0.5 21.7228 0.5 12.2947 6.35786 6.43684C12.2157 0.578979 21.6438 0.578979 40.5 0.578979H42.5C61.3562 0.578979 70.7843 0.578979 76.6421 6.43684C82.5 12.2947 82.5 21.7228 82.5 40.579V42.579C82.5 61.4352 82.5 70.8633 76.6421 76.7211C70.7843 82.579 61.3562 82.579 42.5 82.579H40.5C21.6438 82.579 12.2157 82.579 6.35786 76.7211C0.5 70.8633 0.5 61.4352 0.5 42.579V40.579Z" fill="#009379" fill-opacity="0.2"/>
<path opacity="0.2" d="M54.625 27.1415H49.375C48.6501 27.1415 48.0625 27.7291 48.0625 28.454V33.704C48.0625 34.4289 48.6501 35.0165 49.375 35.0165H54.625C55.3499 35.0165 55.9375 34.4289 55.9375 33.704V28.454C55.9375 27.7291 55.3499 27.1415 54.625 27.1415Z" fill="#009379"/>
<path opacity="0.2" d="M28.375 27.204H33.625C34.3154 27.204 34.875 27.7636 34.875 28.454V33.704C34.875 34.3943 34.3154 34.954 33.625 34.954H28.375C27.6846 34.954 27.125 34.3943 27.125 33.704V28.454C27.125 27.7636 27.6846 27.204 28.375 27.204Z" fill="#009379" stroke="#009379" stroke-width="0.125"/>
<path opacity="0.2" d="M49.375 48.204H54.625C55.3154 48.204 55.875 48.7636 55.875 49.454V54.704C55.875 55.3943 55.3154 55.954 54.625 55.954H49.375C48.6846 55.954 48.125 55.3943 48.125 54.704V49.454C48.125 48.7636 48.6846 48.204 49.375 48.204Z" fill="#009379" stroke="#009379" stroke-width="0.125"/>
<path opacity="0.2" d="M28.375 48.204H33.625C34.3154 48.204 34.875 48.7636 34.875 49.454V54.704C34.875 55.3943 34.3154 55.954 33.625 55.954H28.375C27.6846 55.954 27.125 55.3943 27.125 54.704V49.454C27.125 48.7636 27.6846 48.204 28.375 48.204Z" fill="#009379" stroke="#009379" stroke-width="0.125"/>
<path d="M54.625 27.1415H49.375C48.6501 27.1415 48.0625 27.7291 48.0625 28.454V33.704C48.0625 34.4289 48.6501 35.0165 49.375 35.0165H54.625C55.3499 35.0165 55.9375 34.4289 55.9375 33.704V28.454C55.9375 27.7291 55.3499 27.1415 54.625 27.1415Z" stroke="#009379" stroke-width="2" stroke-linecap="round" stroke-linejoin="round"/>
<path d="M33.625 27.1415H28.375C27.6501 27.1415 27.0625 27.7291 27.0625 28.454V33.704C27.0625 34.4289 27.6501 35.0165 28.375 35.0165H33.625C34.3499 35.0165 34.9375 34.4289 34.9375 33.704V28.454C34.9375 27.7291 34.3499 27.1415 33.625 27.1415Z" stroke="#009379" stroke-width="2" stroke-linecap="round" stroke-linejoin="round"/>
<path d="M54.625 48.1415H49.375C48.6501 48.1415 48.0625 48.7291 48.0625 49.454V54.704C48.0625 55.4289 48.6501 56.0165 49.375 56.0165H54.625C55.3499 56.0165 55.9375 55.4289 55.9375 54.704V49.454C55.9375 48.7291 55.3499 48.1415 54.625 48.1415Z" stroke="#009379" stroke-width="2" stroke-linecap="round" stroke-linejoin="round"/>
<path d="M33.625 48.1415H28.375C27.6501 48.1415 27.0625 48.7291 27.0625 49.454V54.704C27.0625 55.4289 27.6501 56.0165 28.375 56.0165H33.625C34.3499 56.0165 34.9375 55.4289 34.9375 54.704V49.454C34.9375 48.7291 34.3499 48.1415 33.625 48.1415Z" stroke="#009379" stroke-width="2" stroke-linecap="round" stroke-linejoin="round"/>
<path d="M31 48.1415V35.0165" stroke="#009379" stroke-width="2" stroke-linecap="round" stroke-linejoin="round"/>
<path d="M48.0625 52.079H34.9375" stroke="#009379" stroke-width="2" stroke-linecap="round" stroke-linejoin="round"/>
<path d="M52 35.0165V48.1415" stroke="#009379" stroke-width="2" stroke-linecap="round" stroke-linejoin="round"/>
<path d="M34.9375 31.079H48.0625" stroke="#009379" stroke-width="2" stroke-linecap="round" stroke-linejoin="round"/>
</svg>
