<svg width="83" height="83" viewBox="0 0 83 83" fill="none" xmlns="http://www.w3.org/2000/svg">
<path d="M0.5 40.579C0.5 21.7228 0.5 12.2947 6.35786 6.43684C12.2157 0.578979 21.6438 0.578979 40.5 0.578979H42.5C61.3562 0.578979 70.7843 0.578979 76.6421 6.43684C82.5 12.2947 82.5 21.7228 82.5 40.579V42.579C82.5 61.4352 82.5 70.8633 76.6421 76.7211C70.7843 82.579 61.3562 82.579 42.5 82.579H40.5C21.6438 82.579 12.2157 82.579 6.35786 76.7211C0.5 70.8633 0.5 61.4352 0.5 42.579V40.579Z" fill="#F8D57E" fill-opacity="0.2"/>
<path opacity="0.2" d="M25.9305 32.818C25.8116 33.0222 25.7493 33.2544 25.75 33.4906V49.6672C25.7513 49.9009 25.8141 50.1301 25.9322 50.3317C26.0503 50.5333 26.2195 50.7003 26.4227 50.8156L40.8602 58.9367C41.0548 59.048 41.2759 59.1046 41.5 59.1008L41.6477 41.5789L25.9305 32.818Z" fill="#F8D57E"/>
<path d="M57.25 49.6672V33.4907C57.2487 33.257 57.1859 33.0278 57.0678 32.8262C56.9497 32.6245 56.7805 32.4576 56.5773 32.3422L42.1398 24.2211C41.9453 24.1088 41.7246 24.0497 41.5 24.0497C41.2754 24.0497 41.0547 24.1088 40.8602 24.2211L26.4227 32.3422C26.2195 32.4576 26.0503 32.6245 25.9322 32.8262C25.8141 33.0278 25.7513 33.257 25.75 33.4907V49.6672C25.7513 49.9009 25.8141 50.1301 25.9322 50.3317C26.0503 50.5333 26.2195 50.7003 26.4227 50.8157L40.8602 58.9368C41.0547 59.0491 41.2754 59.1082 41.5 59.1082C41.7246 59.1082 41.9453 59.0491 42.1398 58.9368L56.5773 50.8157C56.7805 50.7003 56.9497 50.5333 57.0678 50.3317C57.1859 50.1301 57.2487 49.9009 57.25 49.6672V49.6672Z" stroke="#F8D57E" stroke-width="2" stroke-linecap="round" stroke-linejoin="round"/>
<path d="M49.5391 45.5985V37.0673L33.625 28.2899" stroke="#F8D57E" stroke-width="2" stroke-linecap="round" stroke-linejoin="round"/>
<path d="M57.0695 32.818L41.6476 41.5789L25.9304 32.818" stroke="#F8D57E" stroke-width="2" stroke-linecap="round" stroke-linejoin="round"/>
<path d="M41.6477 41.579L41.5 59.1009" stroke="#F8D57E" stroke-width="2" stroke-linecap="round" stroke-linejoin="round"/>
</svg>
