<svg width="29" height="21" viewBox="0 0 29 21" fill="none" xmlns="http://www.w3.org/2000/svg">
<path opacity="0.2" d="M10 12.8086C12.7614 12.8086 15 10.57 15 7.80859C15 5.04717 12.7614 2.80859 10 2.80859C7.23858 2.80859 5 5.04717 5 7.80859C5 10.57 7.23858 12.8086 10 12.8086Z" fill="#009379"/>
<path d="M10 12.8086C12.7614 12.8086 15 10.57 15 7.80859C15 5.04717 12.7614 2.80859 10 2.80859C7.23858 2.80859 5 5.04717 5 7.80859C5 10.57 7.23858 12.8086 10 12.8086Z" stroke="#009379" stroke-width="0.740741" stroke-miterlimit="10"/>
<path d="M2.42188 17.1833C3.18979 15.853 4.2944 14.7482 5.62465 13.9801C6.9549 13.212 8.46392 12.8076 10 12.8076C11.5361 12.8076 13.0451 13.212 14.3753 13.9801C15.7056 14.7482 16.8102 15.853 17.5781 17.1833" stroke="#009379" stroke-width="0.740741" stroke-linecap="round" stroke-linejoin="round"/>
<rect x="28" y="0.308594" width="1" height="20" fill="#DBE3FF"/>
</svg>
