<svg width="33" height="32" viewBox="0 0 33 32" fill="none" xmlns="http://www.w3.org/2000/svg">
<path fill-rule="evenodd" clip-rule="evenodd" d="M0.5 16C0.5 7.16344 7.66344 0 16.5 0C25.3366 0 32.5 7.16344 32.5 16C32.5 24.8366 25.3366 32 16.5 32C7.66344 32 0.5 24.8366 0.5 16Z" fill="#E5F4F2"/>
<path fill-rule="evenodd" clip-rule="evenodd" d="M25.0333 15.9882C25.0333 16.5653 24.9746 17.1416 24.8592 17.7033C24.7467 18.2517 24.58 18.7901 24.3617 19.3048C24.1483 19.8104 23.8837 20.2976 23.5745 20.752C23.27 21.2034 22.9191 21.627 22.5337 22.0131C22.1474 22.3976 21.7224 22.7475 21.2711 23.0534C20.8152 23.3604 20.3273 23.6246 19.8215 23.8389C19.306 24.0561 18.7664 24.2225 18.2184 24.3349C17.6559 24.4506 17.0776 24.5096 16.4996 24.5096C15.9213 24.5096 15.3429 24.4506 14.7812 24.3349C14.2324 24.2225 13.6928 24.0561 13.1778 23.8389C12.6719 23.6246 12.1836 23.3604 11.7277 23.0534C11.2764 22.7475 10.8514 22.3976 10.466 22.0131C10.0801 21.627 9.72928 21.2034 9.42427 20.752C9.11675 20.2976 8.85172 19.8104 8.63755 19.3048C8.41918 18.7901 8.25211 18.2517 8.13919 17.7033C8.02503 17.1416 7.96667 16.5653 7.96667 15.9882C7.96667 15.4106 8.02499 14.8331 8.13922 14.2726C8.25215 13.7242 8.41922 13.185 8.63759 12.6711C8.85175 12.1651 9.11678 11.6775 9.4243 11.2231C9.72931 10.7713 10.0802 10.3485 10.466 9.96194C10.8515 9.57746 11.2765 9.22839 11.7278 8.92299C12.1836 8.61465 12.672 8.35047 13.1778 8.13574C13.6929 7.91809 14.2324 7.75126 14.7812 7.63976C15.3429 7.52493 15.9213 7.46667 16.4997 7.46667C17.0776 7.46667 17.6559 7.52493 18.2185 7.63976C18.7664 7.75129 19.306 7.91812 19.8215 8.13574C20.3273 8.35043 20.8153 8.61465 21.2711 8.92299C21.7224 9.22839 22.1475 9.57746 22.5337 9.96194C22.9191 10.3485 23.27 10.7713 23.5746 11.2231C23.8837 11.6775 24.1483 12.1652 24.3617 12.6711C24.58 13.185 24.7467 13.7242 24.8592 14.2726C24.9746 14.8331 25.0333 15.4106 25.0333 15.9882ZM13.3903 9.40605C11.3581 10.3643 9.84131 12.2342 9.36836 14.4877C9.56048 14.4894 12.5973 14.5277 16.0962 13.5994C14.8349 11.3616 13.4874 9.53549 13.3903 9.40605ZM16.7 14.7199C12.9477 15.8417 9.34711 15.761 9.21795 15.756C9.21585 15.8342 9.21211 15.9099 9.21211 15.9882C9.21211 17.8576 9.91839 19.5619 11.0793 20.8506C11.0768 20.8468 13.0711 17.3138 17.0038 16.0439C17.0988 16.0123 17.1955 15.984 17.2913 15.9565C17.1084 15.543 16.9087 15.1285 16.7 14.7199ZM21.3124 10.5266C20.0293 9.39688 18.3447 8.71163 16.4996 8.71163C15.9075 8.71163 15.3329 8.7832 14.7824 8.91551C14.8916 9.06199 16.2604 10.8753 17.5067 13.1604C20.2565 12.131 21.2944 10.5532 21.3124 10.5266ZM17.788 17.1624C17.7718 17.1677 17.7556 17.1724 17.7397 17.1782C13.44 18.675 12.0358 21.6914 12.0206 21.7243C13.2578 22.6851 14.8096 23.2647 16.4996 23.2647C17.5088 23.2647 18.4701 23.0595 19.3448 22.688C19.2368 22.0522 18.8135 19.8237 17.788 17.1624ZM20.5719 22.0231C22.2082 20.9205 23.3703 19.1696 23.6945 17.1415C23.5445 17.0933 21.5057 16.4487 19.1535 16.8253C20.1093 19.4484 20.4977 21.5846 20.5719 22.0231ZM18.0676 14.2447C18.2368 14.5918 18.4006 14.945 18.5518 15.2999C18.6056 15.4273 18.6581 15.5521 18.7093 15.6769C21.2128 15.3623 23.6792 15.8916 23.7846 15.9132C23.7679 14.1881 23.15 12.6049 22.1275 11.3654C22.1137 11.3849 20.9449 13.0714 18.0676 14.2447Z" fill="#2D2D2D"/>
</svg>
