<svg width="32" height="33" viewBox="0 0 32 33" fill="none" xmlns="http://www.w3.org/2000/svg">
<path fill-rule="evenodd" clip-rule="evenodd" d="M0 16.3086C0 7.47204 7.16344 0.308594 16 0.308594C24.8366 0.308594 32 7.47204 32 16.3086C32 25.1452 24.8366 32.3086 16 32.3086C7.16344 32.3086 0 25.1452 0 16.3086Z" fill="#4E4D4D"/>
<path fill-rule="evenodd" clip-rule="evenodd" d="M16.0008 7.77539C13.6833 7.77539 13.3924 7.78552 12.4822 7.82695C11.5737 7.86855 10.9536 8.01237 10.4111 8.2234C9.84981 8.44135 9.37372 8.73291 8.8994 9.20741C8.42473 9.68172 8.13317 10.1578 7.9145 10.7189C7.70294 11.2616 7.55894 11.8819 7.51805 12.79C7.47734 13.7003 7.46667 13.9913 7.46667 16.3088C7.46667 18.6263 7.47699 18.9163 7.51823 19.8265C7.56001 20.735 7.70383 21.3551 7.91468 21.8977C8.13282 22.4589 8.42437 22.935 8.89887 23.4093C9.37301 23.884 9.8491 24.1763 10.41 24.3942C10.9529 24.6053 11.5732 24.7491 12.4815 24.7907C13.3917 24.8321 13.6824 24.8422 15.9997 24.8422C18.3175 24.8422 18.6074 24.8321 19.5176 24.7907C20.4261 24.7491 21.0469 24.6053 21.5898 24.3942C22.1509 24.1763 22.6263 23.884 23.1004 23.4093C23.5751 22.935 23.8667 22.4589 24.0853 21.8978C24.2951 21.3551 24.4391 20.7348 24.4818 19.8267C24.5227 18.9165 24.5333 18.6263 24.5333 16.3088C24.5333 13.9913 24.5227 13.7004 24.4818 12.7902C24.4391 11.8817 24.2951 11.2616 24.0853 10.7191C23.8667 10.1578 23.5751 9.68172 23.1004 9.20741C22.6258 8.73273 22.1511 8.44118 21.5893 8.2234C21.0453 8.01237 20.4249 7.86855 19.5164 7.82695C18.6062 7.78552 18.3164 7.77539 15.9981 7.77539H16.0008ZM15.2353 9.31316C15.4625 9.3128 15.716 9.31316 16.0008 9.31316C18.2792 9.31316 18.5492 9.32134 19.449 9.36223C20.281 9.40027 20.7326 9.5393 21.0334 9.6561C21.4316 9.81077 21.7155 9.99566 22.014 10.2943C22.3127 10.593 22.4976 10.8774 22.6526 11.2757C22.7694 11.5761 22.9086 12.0277 22.9464 12.8597C22.9873 13.7593 22.9962 14.0295 22.9962 16.3068C22.9962 18.5842 22.9873 18.8544 22.9464 19.754C22.9084 20.586 22.7694 21.0375 22.6526 21.338C22.4979 21.7362 22.3127 22.0198 22.014 22.3183C21.7153 22.6169 21.4318 22.8018 21.0334 22.9565C20.7329 23.0738 20.281 23.2125 19.449 23.2506C18.5494 23.2914 18.2792 23.3003 16.0008 23.3003C13.7222 23.3003 13.4521 23.2914 12.5526 23.2506C11.7205 23.2122 11.269 23.0731 10.968 22.9563C10.5698 22.8017 10.2853 22.6168 9.98666 22.3181C9.68799 22.0194 9.5031 21.7357 9.34808 21.3373C9.23128 21.0368 9.09208 20.5853 9.05421 19.7533C9.01332 18.8537 9.00514 18.5835 9.00514 16.3047C9.00514 14.0259 9.01332 13.7571 9.05421 12.8576C9.09226 12.0255 9.23128 11.574 9.34808 11.2732C9.50275 10.875 9.68799 10.5905 9.98666 10.2918C10.2853 9.99317 10.5698 9.80828 10.968 9.65325C11.2688 9.53592 11.7205 9.39725 12.5526 9.35903C13.3398 9.32347 13.6448 9.3128 15.2353 9.31103V9.31316ZM20.5558 10.7301C19.9905 10.7301 19.5318 11.1882 19.5318 11.7537C19.5318 12.3191 19.9905 12.7777 20.5558 12.7777C21.1212 12.7777 21.5799 12.3191 21.5799 11.7537C21.5799 11.1884 21.1212 10.7301 20.5558 10.7301ZM16.0008 11.9265C13.5807 11.9265 11.6186 13.8887 11.6186 16.3088C11.6186 18.7289 13.5807 20.6902 16.0008 20.6902C18.4209 20.6902 20.3824 18.7289 20.3824 16.3088C20.3824 13.8887 18.4209 11.9265 16.0008 11.9265ZM16.0008 13.4643C17.5717 13.4643 18.8453 14.7378 18.8453 16.3088C18.8453 17.8797 17.5717 19.1533 16.0008 19.1533C14.4298 19.1533 13.1563 17.8797 13.1563 16.3088C13.1563 14.7378 14.4298 13.4643 16.0008 13.4643Z" fill="white"/>
</svg>
