<svg width="33" height="32" viewBox="0 0 33 32" fill="none" xmlns="http://www.w3.org/2000/svg">
<path fill-rule="evenodd" clip-rule="evenodd" d="M0.5 16C0.5 7.16344 7.66344 0 16.5 0C25.3366 0 32.5 7.16344 32.5 16C32.5 24.8366 25.3366 32 16.5 32C7.66344 32 0.5 24.8366 0.5 16Z" fill="#E5F4F2"/>
<path fill-rule="evenodd" clip-rule="evenodd" d="M16.0208 13.005L16.0544 13.5586L15.4948 13.4908C13.4579 13.231 11.6784 12.3497 10.1676 10.8695L9.42891 10.1351L9.23865 10.6775C8.83575 11.8864 9.09316 13.1632 9.93253 14.0219C10.3802 14.4964 10.2795 14.5642 9.50725 14.2818C9.23865 14.1914 9.00363 14.1236 8.98124 14.1575C8.9029 14.2366 9.1715 15.2647 9.38414 15.6715C9.67513 16.2364 10.2683 16.7901 10.9174 17.1177L11.4658 17.3776L10.8167 17.3889C10.1899 17.3889 10.1676 17.4002 10.2347 17.6375C10.4585 18.3719 11.3427 19.1515 12.3276 19.4905L13.0214 19.7277L12.4171 20.0893C11.5218 20.609 10.4697 20.9028 9.41772 20.9254C8.91409 20.9367 8.5 20.9819 8.5 21.0158C8.5 21.1288 9.86538 21.7615 10.66 22.0101C13.0438 22.7445 15.8753 22.4281 18.0017 21.174C19.5126 20.2814 21.0235 18.5075 21.7286 16.7901C22.1091 15.8749 22.4896 14.2027 22.4896 13.4005C22.4896 12.8807 22.5232 12.8129 23.1499 12.1915C23.5192 11.8299 23.8662 11.4345 23.9333 11.3215C24.0452 11.1068 24.034 11.1068 23.4633 11.2989C22.512 11.6379 22.3777 11.5927 22.8477 11.0842C23.1947 10.7227 23.6088 10.0673 23.6088 9.87526C23.6088 9.84137 23.4409 9.89786 23.2506 9.99955C23.0492 10.1125 22.6015 10.282 22.2658 10.3837L21.6614 10.5758L21.113 10.2029C20.8108 9.99955 20.3856 9.77357 20.1617 9.70578C19.5909 9.5476 18.718 9.5702 18.2032 9.75098C16.8042 10.2594 15.9201 11.5701 16.0208 13.005Z" fill="#2D2D2D"/>
</svg>
