<svg width="32" height="33" viewBox="0 0 32 33" fill="none" xmlns="http://www.w3.org/2000/svg">
<path fill-rule="evenodd" clip-rule="evenodd" d="M0 16.3086C0 7.47204 7.16344 0.308594 16 0.308594C24.8366 0.308594 32 7.47204 32 16.3086C32 25.1452 24.8366 32.3086 16 32.3086C7.16344 32.3086 0 25.1452 0 16.3086Z" fill="#4E4D4D"/>
<path fill-rule="evenodd" clip-rule="evenodd" d="M24.5333 16.2969C24.5333 16.874 24.4746 17.4503 24.3592 18.012C24.2467 18.5604 24.08 19.0988 23.8617 19.6135C23.6483 20.1191 23.3837 20.6063 23.0745 21.0607C22.77 21.5122 22.4191 21.9357 22.0337 22.3219C21.6474 22.7063 21.2224 23.0562 20.7711 23.3621C20.3152 23.6691 19.8273 23.9333 19.3215 24.1477C18.806 24.3648 18.2664 24.5313 17.7184 24.6436C17.1559 24.7593 16.5776 24.8184 15.9996 24.8184C15.4213 24.8184 14.8429 24.7593 14.2812 24.6436C13.7324 24.5313 13.1928 24.3648 12.6778 24.1477C12.1719 23.9333 11.6836 23.6691 11.2277 23.3621C10.7764 23.0562 10.3514 22.7063 9.96599 22.3219C9.58015 21.9357 9.22928 21.5122 8.92427 21.0607C8.61675 20.6063 8.35172 20.1191 8.13755 19.6135C7.91918 19.0988 7.75211 18.5604 7.63919 18.012C7.52503 17.4503 7.46667 16.874 7.46667 16.2969C7.46667 15.7194 7.52499 15.1418 7.63922 14.5813C7.75215 14.0329 7.91922 13.4937 8.13759 12.9798C8.35175 12.4739 8.61678 11.9862 8.9243 11.5318C9.22931 11.08 9.58018 10.6572 9.96602 10.2707C10.3515 9.88618 10.7765 9.53712 11.2278 9.23171C11.6836 8.92337 12.172 8.65919 12.6778 8.44447C13.1929 8.22681 13.7324 8.05998 14.2812 7.94849C14.8429 7.83366 15.4213 7.77539 15.9997 7.77539C16.5776 7.77539 17.1559 7.83366 17.7185 7.94849C18.2664 8.06002 18.806 8.22685 19.3215 8.44447C19.8273 8.65916 20.3153 8.92337 20.7711 9.23171C21.2224 9.53712 21.6475 9.88618 22.0337 10.2707C22.4191 10.6572 22.77 11.08 23.0746 11.5318C23.3837 11.9862 23.6483 12.4739 23.8617 12.9798C24.08 13.4937 24.2467 14.0329 24.3592 14.5813C24.4746 15.1418 24.5333 15.7194 24.5333 16.2969ZM12.8903 9.71477C10.8581 10.673 9.34131 12.5429 8.86836 14.7965C9.06048 14.7981 12.0973 14.8364 15.5962 13.9081C14.3349 11.6704 12.9874 9.84421 12.8903 9.71477ZM16.2 15.0287C12.4477 16.1504 8.84711 16.0697 8.71795 16.0647C8.71585 16.1429 8.71211 16.2186 8.71211 16.2969C8.71211 18.1663 9.41839 19.8706 10.5793 21.1593C10.5768 21.1555 12.5711 17.6225 16.5038 16.3526C16.5988 16.321 16.6955 16.2927 16.7913 16.2653C16.6084 15.8517 16.4087 15.4373 16.2 15.0287ZM20.8124 10.8353C19.5293 9.70561 17.8447 9.02035 15.9996 9.02035C15.4075 9.02035 14.8329 9.09193 14.2824 9.22423C14.3916 9.37072 15.7604 11.184 17.0067 13.4691C19.7565 12.4397 20.7944 10.8619 20.8124 10.8353ZM17.288 17.4711C17.2718 17.4765 17.2556 17.4811 17.2397 17.4869C12.94 18.9837 11.5358 22.0001 11.5206 22.0331C12.7578 22.9938 14.3096 23.5734 15.9996 23.5734C17.0088 23.5734 17.9701 23.3682 18.8448 22.9967C18.7368 22.3609 18.3135 20.1324 17.288 17.4711ZM20.0719 22.3318C21.7082 21.2292 22.8703 19.4783 23.1945 17.4502C23.0445 17.402 21.0057 16.7575 18.6535 17.134C19.6093 19.7571 19.9977 21.8933 20.0719 22.3318ZM17.5676 14.5535C17.7368 14.9005 17.9006 15.2537 18.0518 15.6087C18.1056 15.736 18.1581 15.8608 18.2093 15.9856C20.7128 15.6711 23.1792 16.2003 23.2846 16.2219C23.2679 14.4969 22.65 12.9136 21.6275 11.6741C21.6137 11.6937 20.4449 13.3801 17.5676 14.5535Z" fill="white"/>
</svg>
