<svg width="32" height="33" viewBox="0 0 32 33" fill="none" xmlns="http://www.w3.org/2000/svg">
<path fill-rule="evenodd" clip-rule="evenodd" d="M0 16.3086C0 7.47204 7.16344 0.308594 16 0.308594C24.8366 0.308594 32 7.47204 32 16.3086C32 25.1452 24.8366 32.3086 16 32.3086C7.16344 32.3086 0 25.1452 0 16.3086Z" fill="#E5F4F2"/>
<path fill-rule="evenodd" clip-rule="evenodd" d="M18.3722 12.7555H22.8917V11.4606H18.3722V12.7555ZM19.4429 15.5808C19.1549 15.8738 18.9733 16.2708 18.899 16.7717H22.4141C22.377 16.2371 22.1944 15.8332 21.8712 15.5551C21.5441 15.2789 21.1417 15.1413 20.6601 15.1413C20.1383 15.1413 19.7309 15.2878 19.4429 15.5808ZM22.4933 13.8425C23.0382 14.082 23.4868 14.4622 23.84 14.9809C24.1621 15.4383 24.3688 15.9689 24.4631 16.5717C24.5183 16.9242 24.5404 17.435 24.5314 18.0992H18.8488C18.8829 18.8704 19.1518 19.4119 19.6656 19.7218C19.9767 19.9148 20.351 20.0118 20.7905 20.0118C21.2531 20.0118 21.6314 19.894 21.9214 19.6594C22.0809 19.5317 22.2214 19.3555 22.3418 19.1298H24.424C24.3688 19.5851 24.1159 20.0494 23.6684 20.5206C22.97 21.268 21.9916 21.6422 20.7343 21.6422C19.6957 21.6422 18.7796 21.3274 17.9878 20.6959C17.1921 20.0653 16.7967 19.0377 16.7967 17.6161C16.7967 16.2827 17.155 15.2601 17.8704 14.5483C18.5879 13.8385 19.5161 13.4811 20.659 13.4811C21.3384 13.4811 21.9495 13.6019 22.4933 13.8425ZM9.56888 16.7994V19.5742H12.1297C12.5873 19.5742 12.9445 19.5129 13.1984 19.3911C13.661 19.1634 13.8918 18.7318 13.8918 18.0923C13.8918 17.5498 13.669 17.1786 13.2204 16.9756C12.9696 16.8628 12.6174 16.8034 12.1658 16.7994H9.56888ZM9.56888 12.7822V15.0779H12.1337C12.5903 15.0779 12.9626 14.9918 13.2495 14.8195C13.5345 14.6473 13.678 14.3424 13.678 13.9068C13.678 13.4207 13.4894 13.101 13.1121 12.9446C12.7849 12.8367 12.3695 12.7822 11.8648 12.7822H9.56888ZM15.2966 12.0843C15.6187 12.5268 15.7803 13.0555 15.7803 13.6722C15.7803 14.3068 15.6187 14.8186 15.2926 15.2046C15.11 15.4204 14.842 15.6184 14.4878 15.7966C15.0257 15.9907 15.4311 16.2965 15.707 16.7153C15.98 17.133 16.1174 17.6419 16.1174 18.2398C16.1174 18.8565 15.9609 19.4099 15.6468 19.899C15.4481 20.2227 15.1993 20.4959 14.9002 20.7176C14.5641 20.9721 14.1677 21.1453 13.7091 21.2403C13.2506 21.3344 12.7549 21.3799 12.219 21.3799H7.46667V10.9756H12.5632C13.8496 10.9944 14.7598 11.3636 15.2966 12.0843Z" fill="#2D2D2D"/>
</svg>
