<svg width="142" height="26" viewBox="0 0 142 26" fill="none" xmlns="http://www.w3.org/2000/svg">
<path d="M13.5077 20.6555L19.3226 24.3475C20.0725 24.8205 20.9956 24.1167 20.7763 23.2514L19.0919 16.6288C19.0463 16.4453 19.0535 16.2526 19.1127 16.0729C19.1719 15.8933 19.2807 15.734 19.4264 15.6135L24.6414 11.2639C25.3222 10.6985 24.976 9.55629 24.0876 9.4986L17.2804 9.06017C17.0947 9.04936 16.9161 8.98469 16.7666 8.87404C16.617 8.7634 16.5029 8.61158 16.4382 8.43714L13.8999 2.04531C13.8327 1.8606 13.7103 1.70103 13.5493 1.58828C13.3883 1.47552 13.1966 1.41504 13 1.41504C12.8034 1.41504 12.6117 1.47552 12.4507 1.58828C12.2897 1.70103 12.1673 1.8606 12.1001 2.04531L9.56179 8.43714C9.4971 8.61158 9.383 8.7634 9.23342 8.87404C9.08385 8.98469 8.90529 9.04936 8.71955 9.06017L1.91237 9.4986C1.02397 9.55629 0.677844 10.6985 1.35856 11.2639L6.57356 15.6135C6.71932 15.734 6.82806 15.8933 6.88726 16.0729C6.94645 16.2526 6.9537 16.4453 6.90815 16.6288L5.35057 22.7668C5.08521 23.8052 6.19282 24.6475 7.08121 24.0821L12.4923 20.6555C12.6441 20.559 12.8202 20.5077 13 20.5077C13.1798 20.5077 13.3559 20.559 13.5077 20.6555V20.6555Z" fill="#F8D57E" stroke="#F8D57E" stroke-width="2" stroke-linecap="round" stroke-linejoin="round"/>
<path d="M42.5077 20.6555L48.3226 24.3475C49.0725 24.8205 49.9956 24.1167 49.7763 23.2514L48.0919 16.6288C48.0463 16.4453 48.0535 16.2526 48.1127 16.0729C48.1719 15.8933 48.2807 15.734 48.4264 15.6135L53.6414 11.2639C54.3222 10.6985 53.976 9.55629 53.0876 9.4986L46.2804 9.06017C46.0947 9.04936 45.9161 8.98469 45.7666 8.87404C45.617 8.7634 45.5029 8.61158 45.4382 8.43714L42.8999 2.04531C42.8327 1.8606 42.7103 1.70103 42.5493 1.58828C42.3883 1.47552 42.1966 1.41504 42 1.41504C41.8034 1.41504 41.6117 1.47552 41.4507 1.58828C41.2897 1.70103 41.1673 1.8606 41.1001 2.04531L38.5618 8.43714C38.4971 8.61158 38.383 8.7634 38.2334 8.87404C38.0839 8.98469 37.9053 9.04936 37.7196 9.06017L30.9124 9.4986C30.024 9.55629 29.6778 10.6985 30.3586 11.2639L35.5736 15.6135C35.7193 15.734 35.8281 15.8933 35.8873 16.0729C35.9465 16.2526 35.9537 16.4453 35.9081 16.6288L34.3506 22.7668C34.0852 23.8052 35.1928 24.6475 36.0812 24.0821L41.4923 20.6555C41.6441 20.559 41.8202 20.5077 42 20.5077C42.1798 20.5077 42.3559 20.559 42.5077 20.6555V20.6555Z" fill="#F8D57E" stroke="#F8D57E" stroke-width="2" stroke-linecap="round" stroke-linejoin="round"/>
<path d="M71.5077 20.6555L77.3226 24.3475C78.0725 24.8205 78.9956 24.1167 78.7763 23.2514L77.0919 16.6288C77.0463 16.4453 77.0535 16.2526 77.1127 16.0729C77.1719 15.8933 77.2807 15.734 77.4264 15.6135L82.6414 11.2639C83.3222 10.6985 82.976 9.55629 82.0876 9.4986L75.2804 9.06017C75.0947 9.04936 74.9161 8.98469 74.7666 8.87404C74.617 8.7634 74.5029 8.61158 74.4382 8.43714L71.8999 2.04531C71.8327 1.8606 71.7103 1.70103 71.5493 1.58828C71.3883 1.47552 71.1966 1.41504 71 1.41504C70.8034 1.41504 70.6117 1.47552 70.4507 1.58828C70.2897 1.70103 70.1673 1.8606 70.1001 2.04531L67.5618 8.43714C67.4971 8.61158 67.383 8.7634 67.2334 8.87404C67.0839 8.98469 66.9053 9.04936 66.7196 9.06017L59.9124 9.4986C59.024 9.55629 58.6778 10.6985 59.3586 11.2639L64.5736 15.6135C64.7193 15.734 64.8281 15.8933 64.8873 16.0729C64.9465 16.2526 64.9537 16.4453 64.9081 16.6288L63.3506 22.7668C63.0852 23.8052 64.1928 24.6475 65.0812 24.0821L70.4923 20.6555C70.6441 20.559 70.8202 20.5077 71 20.5077C71.1798 20.5077 71.3559 20.559 71.5077 20.6555V20.6555Z" fill="#F8D57E" stroke="#F8D57E" stroke-width="2" stroke-linecap="round" stroke-linejoin="round"/>
<path d="M100.508 20.6555L106.323 24.3475C107.073 24.8205 107.996 24.1167 107.776 23.2514L106.092 16.6288C106.046 16.4453 106.054 16.2526 106.113 16.0729C106.172 15.8933 106.281 15.734 106.426 15.6135L111.641 11.2639C112.322 10.6985 111.976 9.55629 111.088 9.4986L104.28 9.06017C104.095 9.04936 103.916 8.98469 103.767 8.87404C103.617 8.7634 103.503 8.61158 103.438 8.43714L100.9 2.04531C100.833 1.8606 100.71 1.70103 100.549 1.58828C100.388 1.47552 100.197 1.41504 100 1.41504C99.8034 1.41504 99.6117 1.47552 99.4507 1.58828C99.2897 1.70103 99.1673 1.8606 99.1001 2.04531L96.5618 8.43714C96.4971 8.61158 96.383 8.7634 96.2334 8.87404C96.0839 8.98469 95.9053 9.04936 95.7196 9.06017L88.9124 9.4986C88.024 9.55629 87.6778 10.6985 88.3586 11.2639L93.5736 15.6135C93.7193 15.734 93.8281 15.8933 93.8873 16.0729C93.9465 16.2526 93.9537 16.4453 93.9081 16.6288L92.3506 22.7668C92.0852 23.8052 93.1928 24.6475 94.0812 24.0821L99.4923 20.6555C99.6441 20.559 99.8202 20.5077 100 20.5077C100.18 20.5077 100.356 20.559 100.508 20.6555V20.6555Z" fill="#F8D57E" stroke="#F8D57E" stroke-width="2" stroke-linecap="round" stroke-linejoin="round"/>
<path d="M129.508 20.6555L135.323 24.3475C136.073 24.8205 136.996 24.1167 136.776 23.2514L135.092 16.6288C135.046 16.4453 135.054 16.2526 135.113 16.0729C135.172 15.8933 135.281 15.734 135.426 15.6135L140.641 11.2639C141.322 10.6985 140.976 9.55629 140.088 9.4986L133.28 9.06017C133.095 9.04936 132.916 8.98469 132.767 8.87404C132.617 8.7634 132.503 8.61158 132.438 8.43714L129.9 2.04531C129.833 1.8606 129.71 1.70103 129.549 1.58828C129.388 1.47552 129.197 1.41504 129 1.41504C128.803 1.41504 128.612 1.47552 128.451 1.58828C128.29 1.70103 128.167 1.8606 128.1 2.04531L125.562 8.43714C125.497 8.61158 125.383 8.7634 125.233 8.87404C125.084 8.98469 124.905 9.04936 124.72 9.06017L117.912 9.4986C117.024 9.55629 116.678 10.6985 117.359 11.2639L122.574 15.6135C122.719 15.734 122.828 15.8933 122.887 16.0729C122.946 16.2526 122.954 16.4453 122.908 16.6288L121.351 22.7668C121.085 23.8052 122.193 24.6475 123.081 24.0821L128.492 20.6555C128.644 20.559 128.82 20.5077 129 20.5077C129.18 20.5077 129.356 20.559 129.508 20.6555V20.6555Z" fill="#F8D57E" stroke="#F8D57E" stroke-width="2" stroke-linecap="round" stroke-linejoin="round"/>
</svg>
