<svg width="142" height="26" viewBox="0 0 142 26" fill="none" xmlns="http://www.w3.org/2000/svg">
<path d="M13.5077 20.571L19.3226 24.263C20.0725 24.7361 20.9956 24.0323 20.7763 23.1669L19.0919 16.5444C19.0463 16.3608 19.0535 16.1681 19.1127 15.9885C19.1719 15.8088 19.2807 15.6496 19.4264 15.5291L24.6414 11.1794C25.3222 10.614 24.976 9.47181 24.0876 9.41413L17.2804 8.9757C17.0947 8.96489 16.9161 8.90021 16.7666 8.78957C16.617 8.67893 16.5029 8.52711 16.4382 8.35267L13.8999 1.96084C13.8327 1.77612 13.7103 1.61656 13.5493 1.5038C13.3883 1.39105 13.1966 1.33057 13 1.33057C12.8034 1.33057 12.6117 1.39105 12.4507 1.5038C12.2897 1.61656 12.1673 1.77612 12.1001 1.96084L9.56179 8.35267C9.4971 8.52711 9.383 8.67893 9.23342 8.78957C9.08385 8.90021 8.90529 8.96489 8.71955 8.9757L1.91237 9.41413C1.02397 9.47181 0.677844 10.614 1.35856 11.1794L6.57356 15.5291C6.71932 15.6496 6.82806 15.8088 6.88726 15.9885C6.94645 16.1681 6.9537 16.3608 6.90815 16.5444L5.35057 22.6824C5.08521 23.7208 6.19282 24.563 7.08121 23.9977L12.4923 20.571C12.6441 20.4745 12.8202 20.4233 13 20.4233C13.1798 20.4233 13.3559 20.4745 13.5077 20.571V20.571Z" fill="#F8D57E" stroke="#F8D57E" stroke-width="2" stroke-linecap="round" stroke-linejoin="round"/>
<path d="M42.5077 20.571L48.3226 24.263C49.0725 24.7361 49.9956 24.0323 49.7763 23.1669L48.0919 16.5444C48.0463 16.3608 48.0535 16.1681 48.1127 15.9885C48.1719 15.8088 48.2807 15.6496 48.4264 15.5291L53.6414 11.1794C54.3222 10.614 53.976 9.47181 53.0876 9.41413L46.2804 8.9757C46.0947 8.96489 45.9161 8.90021 45.7666 8.78957C45.617 8.67893 45.5029 8.52711 45.4382 8.35267L42.8999 1.96084C42.8327 1.77612 42.7103 1.61656 42.5493 1.5038C42.3883 1.39105 42.1966 1.33057 42 1.33057C41.8034 1.33057 41.6117 1.39105 41.4507 1.5038C41.2897 1.61656 41.1673 1.77612 41.1001 1.96084L38.5618 8.35267C38.4971 8.52711 38.383 8.67893 38.2334 8.78957C38.0839 8.90021 37.9053 8.96489 37.7196 8.9757L30.9124 9.41413C30.024 9.47181 29.6778 10.614 30.3586 11.1794L35.5736 15.5291C35.7193 15.6496 35.8281 15.8088 35.8873 15.9885C35.9465 16.1681 35.9537 16.3608 35.9081 16.5444L34.3506 22.6824C34.0852 23.7208 35.1928 24.563 36.0812 23.9977L41.4923 20.571C41.6441 20.4745 41.8202 20.4233 42 20.4233C42.1798 20.4233 42.3559 20.4745 42.5077 20.571V20.571Z" fill="#F8D57E" stroke="#F8D57E" stroke-width="2" stroke-linecap="round" stroke-linejoin="round"/>
<path d="M71.5077 20.571L77.3226 24.263C78.0725 24.7361 78.9956 24.0323 78.7763 23.1669L77.0919 16.5444C77.0463 16.3608 77.0535 16.1681 77.1127 15.9885C77.1719 15.8088 77.2807 15.6496 77.4264 15.5291L82.6414 11.1794C83.3222 10.614 82.976 9.47181 82.0876 9.41413L75.2804 8.9757C75.0947 8.96489 74.9161 8.90021 74.7666 8.78957C74.617 8.67893 74.5029 8.52711 74.4382 8.35267L71.8999 1.96084C71.8327 1.77612 71.7103 1.61656 71.5493 1.5038C71.3883 1.39105 71.1966 1.33057 71 1.33057C70.8034 1.33057 70.6117 1.39105 70.4507 1.5038C70.2897 1.61656 70.1673 1.77612 70.1001 1.96084L67.5618 8.35267C67.4971 8.52711 67.383 8.67893 67.2334 8.78957C67.0839 8.90021 66.9053 8.96489 66.7196 8.9757L59.9124 9.41413C59.024 9.47181 58.6778 10.614 59.3586 11.1794L64.5736 15.5291C64.7193 15.6496 64.8281 15.8088 64.8873 15.9885C64.9465 16.1681 64.9537 16.3608 64.9081 16.5444L63.3506 22.6824C63.0852 23.7208 64.1928 24.563 65.0812 23.9977L70.4923 20.571C70.6441 20.4745 70.8202 20.4233 71 20.4233C71.1798 20.4233 71.3559 20.4745 71.5077 20.571V20.571Z" fill="#F8D57E" stroke="#F8D57E" stroke-width="2" stroke-linecap="round" stroke-linejoin="round"/>
<path d="M100.508 20.571L106.323 24.263C107.073 24.7361 107.996 24.0323 107.776 23.1669L106.092 16.5444C106.046 16.3608 106.054 16.1681 106.113 15.9885C106.172 15.8088 106.281 15.6496 106.426 15.5291L111.641 11.1794C112.322 10.614 111.976 9.47181 111.088 9.41413L104.28 8.9757C104.095 8.96489 103.916 8.90021 103.767 8.78957C103.617 8.67893 103.503 8.52711 103.438 8.35267L100.9 1.96084C100.833 1.77612 100.71 1.61656 100.549 1.5038C100.388 1.39105 100.197 1.33057 100 1.33057C99.8034 1.33057 99.6117 1.39105 99.4507 1.5038C99.2897 1.61656 99.1673 1.77612 99.1001 1.96084L96.5618 8.35267C96.4971 8.52711 96.383 8.67893 96.2334 8.78957C96.0839 8.90021 95.9053 8.96489 95.7196 8.9757L88.9124 9.41413C88.024 9.47181 87.6778 10.614 88.3586 11.1794L93.5736 15.5291C93.7193 15.6496 93.8281 15.8088 93.8873 15.9885C93.9465 16.1681 93.9537 16.3608 93.9081 16.5444L92.3506 22.6824C92.0852 23.7208 93.1928 24.563 94.0812 23.9977L99.4923 20.571C99.6441 20.4745 99.8202 20.4233 100 20.4233C100.18 20.4233 100.356 20.4745 100.508 20.571V20.571Z" fill="#F8D57E" stroke="#F8D57E" stroke-width="2" stroke-linecap="round" stroke-linejoin="round"/>
<path d="M129.508 20.571L135.323 24.263C136.073 24.7361 136.996 24.0323 136.776 23.1669L135.092 16.5444C135.046 16.3608 135.054 16.1681 135.113 15.9885C135.172 15.8088 135.281 15.6496 135.426 15.5291L140.641 11.1794C141.322 10.614 140.976 9.47181 140.088 9.41413L133.28 8.9757C133.095 8.96489 132.916 8.90021 132.767 8.78957C132.617 8.67893 132.503 8.52711 132.438 8.35267L129.9 1.96084C129.833 1.77612 129.71 1.61656 129.549 1.5038C129.388 1.39105 129.197 1.33057 129 1.33057C128.803 1.33057 128.612 1.39105 128.451 1.5038C128.29 1.61656 128.167 1.77612 128.1 1.96084L125.562 8.35267C125.497 8.52711 125.383 8.67893 125.233 8.78957C125.084 8.90021 124.905 8.96489 124.72 8.9757L117.912 9.41413C117.024 9.47181 116.678 10.614 117.359 11.1794L122.574 15.5291C122.719 15.6496 122.828 15.8088 122.887 15.9885C122.946 16.1681 122.954 16.3608 122.908 16.5444L121.351 22.6824C121.085 23.7208 122.193 24.563 123.081 23.9977L128.492 20.571C128.644 20.4745 128.82 20.4233 129 20.4233C129.18 20.4233 129.356 20.4745 129.508 20.571V20.571Z" stroke="#F8D57E" stroke-width="2" stroke-linecap="round" stroke-linejoin="round"/>
</svg>
